<?xml version="1.0" encoding="UTF-8"?>
<!DOCTYPE svg PUBLIC "-//W3C//DTD SVG 1.1//EN" "http://www.w3.org/Graphics/SVG/1.1/DTD/svg11.dtd">
<svg xmlns="http://www.w3.org/2000/svg" version="1.1" width="225px" height="225px" style="shape-rendering:geometricPrecision; text-rendering:geometricPrecision; image-rendering:optimizeQuality; fill-rule:evenodd; clip-rule:evenodd" xmlns:xlink="http://www.w3.org/1999/xlink">
<g><path style="opacity:1" fill="#ededec" d="M -0.5,-0.5 C 74.5,-0.5 149.5,-0.5 224.5,-0.5C 224.5,74.5 224.5,149.5 224.5,224.5C 149.5,224.5 74.5,224.5 -0.5,224.5C -0.5,149.5 -0.5,74.5 -0.5,-0.5 Z"/></g>
<g><path style="opacity:1" fill="#7cb703" d="M 95.5,5.5 C 141.129,1.56986 176.963,18.2365 203,55.5C 216.694,77.9818 221.694,102.315 218,128.5C 207.609,177.225 178.109,207.058 129.5,218C 75.4431,223.727 36.6097,202.227 13,153.5C -4.10321,105.826 5.73012,64.6591 42.5,30C 58.2267,17.4676 75.8934,9.30094 95.5,5.5 Z"/></g>
<g><path style="opacity:1" fill="#fdfefb" d="M 145.5,150.5 C 123.006,149.503 100.339,149.169 77.5,149.5C 77.5,151.833 77.5,154.167 77.5,156.5C 76.657,158.173 75.3237,159.34 73.5,160C 68.5,160.667 63.5,160.667 58.5,160C 57.6667,159.167 56.8333,158.333 56,157.5C 55.6667,152.167 55.3333,146.833 55,141.5C 48.8342,134.294 46.8342,125.96 49,116.5C 49.9143,114.336 51.081,112.336 52.5,110.5C 50.4332,109.866 48.5998,108.866 47,107.5C 45.5676,103.242 44.9009,98.9089 45,94.5C 50.1973,92.5798 55.6973,91.9132 61.5,92.5C 64.408,78.0917 73.0747,69.5917 87.5,67C 106.351,63.2856 125.018,63.9523 143.5,69C 153.223,73.5624 159.556,81.0624 162.5,91.5C 167.467,92.329 172.467,92.829 177.5,93C 178.574,93.7387 179.241,94.7387 179.5,96C 178.113,99.7077 177.279,103.541 177,107.5C 174.853,108.113 172.686,108.779 170.5,109.5C 177.574,120.258 177.074,130.591 169,140.5C 168.667,145.833 168.333,151.167 168,156.5C 166.833,157.667 165.667,158.833 164.5,160C 159.5,160.667 154.5,160.667 149.5,160C 146.037,157.85 144.704,154.684 145.5,150.5 Z"/></g>
<g><path style="opacity:1" fill="#7db809" d="M 152.5,95.5 C 125.52,97.4914 98.1871,98.1581 70.5,97.5C 71.9251,91.3876 74.5918,85.8876 78.5,81C 100.484,72.3609 122.484,72.3609 144.5,81C 148.384,85.1451 151.051,89.9784 152.5,95.5 Z"/></g>
<g><path style="opacity:1" fill="#a4c95f" d="M 152.5,95.5 C 153.404,96.209 153.737,97.209 153.5,98.5C 125.662,98.8313 97.995,98.4979 70.5,97.5C 98.1871,98.1581 125.52,97.4914 152.5,95.5 Z"/></g>
<g><path style="opacity:1" fill="#7db70d" d="M 69.5,115.5 C 81.421,114.912 85.5877,120.245 82,131.5C 76.2614,136.773 70.5947,136.773 65,131.5C 61.9745,124.742 63.4745,119.409 69.5,115.5 Z"/></g>
<g><path style="opacity:1" fill="#7eb70f" d="M 146.5,115.5 C 155.877,115.046 160.377,119.379 160,128.5C 156.998,134.582 152.165,136.749 145.5,135C 137.228,127.916 137.561,121.416 146.5,115.5 Z"/></g>
<g><path style="opacity:1" fill="#84b22c" d="M 145.5,150.5 C 123.167,150.5 100.833,150.5 78.5,150.5C 78.7947,152.735 78.4614,154.735 77.5,156.5C 77.5,154.167 77.5,151.833 77.5,149.5C 100.339,149.169 123.006,149.503 145.5,150.5 Z"/></g>
</svg>
